<svg width="125" height="138" viewBox="0 0 125 138" fill="none" xmlns="http://www.w3.org/2000/svg">
<path d="M8 138V111H29V138L18.5 134.76L8 138Z" fill="#FF4040"/>
<g filter="url(#filter0_i_1_63)">
<rect width="125" height="125" rx="20" fill="#F1F1F1"/>
</g>
<mask id="mask0_1_63" style="mask-type:alpha" maskUnits="userSpaceOnUse" x="0" y="0" width="125" height="125">
<rect width="125" height="125" rx="20" fill="#F1F1F1"/>
</mask>
<g mask="url(#mask0_1_63)">
<path d="M20.2483 -25.442L104.031 1.74411C108.64 3.23967 108.64 9.76033 104.031 11.2559L20.2483 38.442C19.1371 38.8026 17.9271 38.7617 16.9682 38.0942C13.5468 35.7124 5.68768 27.9111 5.68768 6.5C5.68768 -14.9111 13.5468 -22.7124 16.9682 -25.0942C17.9271 -25.7617 19.1371 -25.8026 20.2483 -25.442Z" fill="#FF934B" fill-opacity="0.1"/>
<path d="M15.209 1.42986L103.173 6.00508C108.012 6.25677 109.7 12.5552 105.635 15.1928L31.7433 63.137C30.7632 63.7729 29.5839 64.0466 28.485 63.65C24.5637 62.2349 14.9532 56.7335 9.41162 36.052C3.87002 15.3705 9.44222 5.80091 12.1306 2.61477C12.884 1.72184 14.0422 1.36918 15.209 1.42986Z" fill="#FF5D5D" fill-opacity="0.1"/>
<path d="M17.1779 28.4264L103.329 10.079C108.068 9.06966 111.328 14.7167 108.085 18.3164L49.1199 83.7516C48.3378 84.6195 47.2695 85.189 46.1053 85.0904C41.9514 84.7384 31.2446 81.9119 20.539 63.3693C9.83346 44.8268 12.739 34.1411 14.5112 30.3677C15.0078 29.3102 16.0352 28.6698 17.1779 28.4264Z" fill="#FF7EFB" fill-opacity="0.1"/>
<path d="M26.1343 53.8736L104.601 13.8539C108.918 11.6523 113.528 16.2631 111.327 20.5797L71.3071 99.0464C70.7762 100.087 69.8918 100.914 68.7417 101.12C64.6383 101.855 53.5647 101.896 38.4247 86.7559C23.2848 71.616 23.3257 60.5424 24.0608 56.4389C24.2669 55.2889 25.0935 54.4044 26.1343 53.8736Z" fill="#D277FF" fill-opacity="0.1"/>
<path d="M41.3934 76.0682L106.829 17.1034C110.428 13.8596 116.075 17.1199 115.066 21.8593L96.7185 108.01C96.4752 109.153 95.8348 110.18 94.7773 110.677C91.0039 112.449 80.3182 115.355 61.7756 104.649C43.2331 93.9435 40.4065 83.2367 40.0546 79.0827C39.9559 77.9186 40.5255 76.8503 41.3934 76.0682Z" fill="#4AC6F6" fill-opacity="0.1"/>
<path d="M62.2837 93.556L110.228 19.6646C112.865 15.5997 119.164 17.2873 119.416 22.1264L123.991 110.09C124.052 111.257 123.699 112.415 122.806 113.169C119.62 115.857 110.05 121.429 89.3687 115.888C68.6872 110.346 63.1858 100.736 61.7707 96.8144C61.3741 95.7154 61.6478 94.5361 62.2837 93.556Z" fill="#58EAB2" fill-opacity="0.1"/>
<path d="M86.7461 104.939L113.932 21.1568C115.428 16.5477 121.948 16.5477 123.444 21.1568L150.63 104.939C150.991 106.051 150.95 107.261 150.282 108.219C147.9 111.641 140.099 119.5 118.688 119.5C97.277 119.5 89.4757 111.641 87.0939 108.219C86.4264 107.261 86.3855 106.051 86.7461 104.939Z" fill="#87B916" fill-opacity="0.1"/>
<path d="M61.9093 -11.941L104.046 1.74454C108.654 3.24093 108.654 9.75908 104.046 11.2555L61.9093 24.941C60.7971 25.3022 59.5792 25.2622 58.6801 24.5146C56.4901 22.6937 52.6881 17.8919 52.6881 6.50001C52.6881 -4.89191 56.4901 -9.69365 58.6801 -11.5146C59.5792 -12.2622 60.7971 -12.3022 61.9093 -11.941Z" fill="#FF934B" fill-opacity="0.6"/>
<path d="M59.1481 3.49153L103.391 5.80486C108.229 6.05781 109.916 12.3539 105.853 14.9917L68.6938 39.1168C67.7131 39.7535 66.5264 40.0301 65.4644 39.5407C62.8777 38.3486 57.9624 34.6945 55.014 23.6908C52.0655 12.687 54.4952 7.06485 56.1393 4.73916C56.8143 3.7843 57.9803 3.43047 59.1481 3.49153Z" fill="#FF5D5D" fill-opacity="0.6"/>
<path d="M60.3163 19.0177L103.651 9.8012C108.389 8.79346 111.648 14.4383 108.406 18.0379L78.7572 50.9584C77.9747 51.8273 76.9 52.4016 75.7475 52.2037C72.9404 51.7217 67.2469 49.4643 61.551 39.5986C55.855 29.7329 56.7468 23.6735 57.7329 21.0015C58.1378 19.9045 59.1725 19.2609 60.3163 19.0177Z" fill="#FF7EFB" fill-opacity="0.6"/>
<path d="M65.4931 33.6082L104.966 13.49C109.282 11.2903 113.891 15.8993 111.691 20.2153L91.5726 59.6877C91.0416 60.7296 90.1521 61.5624 88.9877 61.6696C86.1515 61.9306 80.0678 61.2237 72.0125 53.1684C63.9572 45.113 63.2502 39.0293 63.5112 36.1931C63.6184 35.0287 64.4513 34.1392 65.4931 33.6082Z" fill="#D277FF" fill-opacity="0.6"/>
<path d="M74.0615 46.3877L106.982 16.7388C110.582 13.4969 116.226 16.756 115.219 21.4942L106.002 64.8287C105.759 65.9725 105.115 67.0072 104.018 67.412C101.346 68.3982 95.2869 69.29 85.4212 63.594C75.5555 57.898 73.2981 52.2045 72.8161 49.3974C72.6183 48.245 73.1926 47.1703 74.0615 46.3877Z" fill="#4AC6F6" fill-opacity="0.6"/>
<path d="M86.1826 56.5888L110.308 19.4297C112.945 15.3667 119.242 17.0537 119.494 21.8913L121.808 66.1346C121.869 67.3023 121.515 68.4683 120.56 69.1433C118.235 70.7874 112.612 73.2171 101.609 70.2687C90.6048 67.3202 86.9508 62.405 85.7587 59.8183C85.2693 58.7563 85.5458 57.5696 86.1826 56.5888Z" fill="#58EAB2" fill-opacity="0.6"/>
<path d="M100.247 63.2788L113.933 21.1418C115.429 16.5345 121.947 16.5345 123.444 21.1418L137.129 63.2788C137.49 64.391 137.45 65.6088 136.703 66.508C134.882 68.698 130.08 72.5 118.688 72.5C107.296 72.5 102.494 68.698 100.673 66.508C99.9259 65.6088 99.8859 64.391 100.247 63.2788Z" fill="#87B916" fill-opacity="0.6"/>
<g filter="url(#filter1_d_1_63)">
<circle cx="115.5" cy="11.5" r="20.5" fill="#F9E270"/>
</g>
<g filter="url(#filter2_i_1_63)">
<path fill-rule="evenodd" clip-rule="evenodd" d="M6 5.71714C2.29728 9.34698 0 14.4052 0 20V105C0 110.595 2.29728 115.653 6 119.283V5.71714Z" fill="#414141"/>
</g>
</g>
<defs>
<filter id="filter0_i_1_63" x="-1" y="-1" width="126" height="126" filterUnits="userSpaceOnUse" color-interpolation-filters="sRGB">
<feFlood flood-opacity="0" result="BackgroundImageFix"/>
<feBlend mode="normal" in="SourceGraphic" in2="BackgroundImageFix" result="shape"/>
<feColorMatrix in="SourceAlpha" type="matrix" values="0 0 0 0 0 0 0 0 0 0 0 0 0 0 0 0 0 0 127 0" result="hardAlpha"/>
<feOffset dx="-1" dy="-1"/>
<feGaussianBlur stdDeviation="1"/>
<feComposite in2="hardAlpha" operator="arithmetic" k2="-1" k3="1"/>
<feColorMatrix type="matrix" values="0 0 0 0 0 0 0 0 0 0 0 0 0 0 0 0 0 0 0.25 0"/>
<feBlend mode="normal" in2="shape" result="effect1_innerShadow_1_63"/>
</filter>
<filter id="filter1_d_1_63" x="89" y="-15" width="53" height="53" filterUnits="userSpaceOnUse" color-interpolation-filters="sRGB">
<feFlood flood-opacity="0" result="BackgroundImageFix"/>
<feColorMatrix in="SourceAlpha" type="matrix" values="0 0 0 0 0 0 0 0 0 0 0 0 0 0 0 0 0 0 127 0" result="hardAlpha"/>
<feMorphology radius="2" operator="dilate" in="SourceAlpha" result="effect1_dropShadow_1_63"/>
<feOffset/>
<feGaussianBlur stdDeviation="2"/>
<feComposite in2="hardAlpha" operator="out"/>
<feColorMatrix type="matrix" values="0 0 0 0 1 0 0 0 0 0.959598 0 0 0 0 0.757587 0 0 0 1 0"/>
<feBlend mode="normal" in2="BackgroundImageFix" result="effect1_dropShadow_1_63"/>
<feBlend mode="normal" in="SourceGraphic" in2="effect1_dropShadow_1_63" result="shape"/>
</filter>
<filter id="filter2_i_1_63" x="0" y="5.71714" width="6" height="119.566" filterUnits="userSpaceOnUse" color-interpolation-filters="sRGB">
<feFlood flood-opacity="0" result="BackgroundImageFix"/>
<feBlend mode="normal" in="SourceGraphic" in2="BackgroundImageFix" result="shape"/>
<feColorMatrix in="SourceAlpha" type="matrix" values="0 0 0 0 0 0 0 0 0 0 0 0 0 0 0 0 0 0 127 0" result="hardAlpha"/>
<feOffset dy="6"/>
<feGaussianBlur stdDeviation="3"/>
<feComposite in2="hardAlpha" operator="arithmetic" k2="-1" k3="1"/>
<feColorMatrix type="matrix" values="0 0 0 0 0 0 0 0 0 0 0 0 0 0 0 0 0 0 0.25 0"/>
<feBlend mode="normal" in2="shape" result="effect1_innerShadow_1_63"/>
</filter>
</defs>
</svg>
