<svg width="63" height="63" viewBox="0 0 63 63" fill="none" xmlns="http://www.w3.org/2000/svg">
<rect width="49.2746" height="51.5858" rx="8" transform="matrix(0.987518 -0.157508 0.143399 0.989665 0 7.76113)" fill="#CACACA"/>
<rect width="49.295" height="51.5663" rx="8" transform="matrix(0.982949 0.183877 -0.167538 0.985866 14.5455 3.09835)" fill="#E5E5E5"/>
<path d="M16.0789 36.6541L11.8722 38.661C9.56934 39.7596 7.94936 41.9132 7.51848 44.4487L7.24654 46.0489C6.50631 50.4047 9.4269 54.5944 13.7698 55.4068L48.1684 61.8416C51.5883 62.4814 54.8332 60.2194 55.4161 56.7894C55.7021 55.1067 55.295 53.3687 54.2882 51.9731L50.1622 46.2542C47.9899 43.2432 44.0775 42.0807 40.6841 43.4379L37.4869 44.7167C34.1519 46.0506 30.3069 44.9523 28.1106 42.0384L25.9182 39.1297C23.6064 36.0625 19.49 35.0268 16.0789 36.6541Z" fill="#F3F3F3"/>
<ellipse cx="8.38015" cy="8.76627" rx="8.38015" ry="8.76627" transform="matrix(0.982949 0.183877 -0.167538 0.985866 37.3904 18.5901)" fill="#727272"/>
</svg>
