<svg width="520" height="520" viewBox="0 0 520 520" fill="none" xmlns="http://www.w3.org/2000/svg">
<path fill-rule="evenodd" clip-rule="evenodd" d="M479.36 516H516V467H483.763L479.36 516ZM487.178 429L493.2 362H516V429H487.178ZM496.615 324H516V257H502.636L496.615 324ZM516 152V219H506.052L510.051 174.497C501.022 180.76 491.074 185.842 480.445 189.514L475.008 219H456C445.507 219 437 227.507 437 238C437 248.493 445.507 257 456 257H468.002L455.65 324H380C369.507 324 361 332.507 361 343C361 353.493 369.507 362 380 362H448.644L420.252 516H254.824L281.732 459.311C285.195 463.977 290.744 467 297 467H389C399.493 467 408 458.493 408 448C408 437.507 399.493 429 389 429H297C296.702 429 296.406 429.007 296.111 429.02L408.541 192.164C401.202 190.228 394.139 187.634 387.424 184.451L362.851 219H219C216.093 219 213.338 219.653 210.874 220.82C242.476 196.907 273.629 173.396 302.035 152H323C333.493 152 342 143.493 342 133C342 123.162 334.523 115.071 324.942 114.098C324.783 113.612 324.627 113.125 324.475 112.637L321.659 114H290C279.507 114 271 122.507 271 133C271 134.798 271.25 136.538 271.717 138.187L78.8862 231.575C76.2521 224.243 69.2384 219 61 219H4V151.974C4.33116 151.991 4.66457 152 5 152H190C200.493 152 209 143.493 209 133C209 122.507 200.493 114 190 114H5C4.66457 114 4.33116 114.009 4 114.026V105.5C87.8909 90.128 227.218 64.0898 323.762 45.9722C328.246 30.4479 335.897 16.2211 345.991 4H516V114H402C391.507 114 383 122.507 383 133C383 143.493 391.507 152 402 152H516ZM335.825 257H219C208.507 257 200 248.493 200 238C200 233.214 201.769 228.842 204.69 225.501C159.957 259.363 114.628 293.807 75.1942 324H107C117.493 324 126 332.507 126 343C126 353.493 117.493 362 107 362H45C40.0705 362 35.5794 360.123 32.2027 357.044C21.9734 364.944 12.5128 372.284 4 378.932V516H151.616L186.466 467H146C135.507 467 127 458.493 127 448C127 437.507 135.507 429 146 429H213.493L261.146 362H170C159.507 362 151 353.493 151 343C151 332.507 159.507 324 170 324H288.172L335.825 257ZM26.3875 257H4V267.842L26.3875 257ZM13 448C13 437.507 21.5066 429 32 429H57C67.4934 429 76 437.507 76 448C76 458.493 67.4934 467 57 467H32C21.5066 467 13 458.493 13 448Z" fill="url(#paint0_linear_14_7)"/>
<path d="M516 516V520H520V516H516ZM479.36 516L475.376 515.642L474.984 520H479.36V516ZM516 467H520V463H516V467ZM483.763 467V463H480.107L479.779 466.642L483.763 467ZM493.2 362V358H489.543L489.216 361.642L493.2 362ZM487.178 429L483.195 428.642L482.803 433H487.178V429ZM516 362H520V358H516V362ZM516 429V433H520V429H516ZM516 324V328H520V324H516ZM496.615 324L492.631 323.642L492.239 328H496.615V324ZM516 257H520V253H516V257ZM502.636 257V253H498.98L498.652 256.642L502.636 257ZM516 219V223H520V219H516ZM516 152H520V148H516V152ZM506.052 219L502.068 218.642L501.676 223H506.052V219ZM510.051 174.497L514.035 174.855L514.801 166.334L507.771 171.21L510.051 174.497ZM480.445 189.514L479.139 185.733L476.934 186.494L476.511 188.788L480.445 189.514ZM475.008 219V223H478.338L478.942 219.725L475.008 219ZM468.002 257L471.936 257.725L472.807 253H468.002V257ZM455.65 324V328H458.98L459.584 324.725L455.65 324ZM448.644 362L452.578 362.725L453.449 358H448.644V362ZM420.252 516V520H423.581L424.185 516.725L420.252 516ZM254.824 516L251.21 514.285L248.497 520H254.824V516ZM281.732 459.311L284.945 456.928L280.975 451.579L278.119 457.596L281.732 459.311ZM296.111 429.02L292.497 427.305L289.641 433.323L296.295 433.016L296.111 429.02ZM408.541 192.164L412.154 193.879L414.221 189.525L409.561 188.296L408.541 192.164ZM387.424 184.451L389.137 180.836L386.107 179.4L384.164 182.132L387.424 184.451ZM362.851 219V223H364.915L366.111 221.318L362.851 219ZM210.874 220.82L208.46 217.631L212.587 224.435L210.874 220.82ZM302.035 152V148H300.697L299.628 148.805L302.035 152ZM324.942 114.098L321.14 115.341L321.949 117.815L324.538 118.078L324.942 114.098ZM324.475 112.637L328.293 111.444L326.909 107.013L322.731 109.036L324.475 112.637ZM321.659 114V118H322.577L323.403 117.6L321.659 114ZM271.717 138.187L273.46 141.787L276.479 140.325L275.565 137.097L271.717 138.187ZM78.8862 231.575L75.1217 232.927L76.6259 237.114L80.6297 235.175L78.8862 231.575ZM4 219H0V223H4V219ZM4 151.974L4.20707 147.979L0 147.761V151.974H4ZM4 114.026H0V118.239L4.20716 118.02L4 114.026ZM4 105.5L3.27906 101.565L0 102.166V105.5H4ZM323.762 45.9722L324.5 49.9036L326.921 49.4492L327.605 47.0822L323.762 45.9722ZM345.991 4V0H344.107L342.907 1.45281L345.991 4ZM516 4H520V0H516V4ZM516 114V118H520V114H516ZM335.825 257L339.084 259.318L343.578 253H335.825V257ZM204.69 225.501L207.701 228.134L202.275 222.312L204.69 225.501ZM75.1942 324L72.7625 320.824L63.3902 328H75.1942V324ZM32.2027 357.044L34.8977 354.088L32.4159 351.825L29.7578 353.878L32.2027 357.044ZM4 378.932L1.53821 375.779L0 376.98V378.932H4ZM4 516H0V520H4V516ZM151.616 516V520H153.68L154.876 518.318L151.616 516ZM186.466 467L189.726 469.318L194.22 463H186.466V467ZM213.493 429V433H215.557L216.753 431.318L213.493 429ZM261.146 362L264.405 364.318L268.899 358H261.146V362ZM288.172 324V328H290.236L291.432 326.318L288.172 324ZM4 257V253H0V257H4ZM26.3875 257L28.131 260.6L26.3875 253V257ZM4 267.842H0V274.224L5.74349 271.442L4 267.842ZM516 512H479.36V520H516V512ZM512 467V516H520V467H512ZM483.763 471H516V463H483.763V471ZM483.344 516.358L487.747 467.358L479.779 466.642L475.376 515.642L483.344 516.358ZM489.216 361.642L483.195 428.642L491.162 429.358L497.184 362.358L489.216 361.642ZM516 358H493.2V366H516V358ZM520 429V362H512V429H520ZM487.178 433H516V425H487.178V433ZM516 320H496.615V328H516V320ZM512 257V324H520V257H512ZM502.636 261H516V253H502.636V261ZM500.599 324.358L506.62 257.358L498.652 256.642L492.631 323.642L500.599 324.358ZM520 219V152H512V219H520ZM506.052 223H516V215H506.052V223ZM506.067 174.139L502.068 218.642L510.035 219.358L514.035 174.855L506.067 174.139ZM481.75 193.295C492.729 189.503 503.004 184.253 512.331 177.784L507.771 171.21C499.04 177.267 489.42 182.182 479.139 185.733L481.75 193.295ZM478.942 219.725L484.378 190.239L476.511 188.788L471.075 218.275L478.942 219.725ZM456 223H475.008V215H456V223ZM441 238C441 229.716 447.716 223 456 223V215C443.297 215 433 225.297 433 238H441ZM456 253C447.716 253 441 246.284 441 238H433C433 250.703 443.297 261 456 261V253ZM468.002 253H456V261H468.002V253ZM459.584 324.725L471.936 257.725L464.069 256.275L451.716 323.275L459.584 324.725ZM380 328H455.65V320H380V328ZM365 343C365 334.716 371.716 328 380 328V320C367.297 320 357 330.297 357 343H365ZM380 358C371.716 358 365 351.284 365 343H357C357 355.703 367.297 366 380 366V358ZM448.644 358H380V366H448.644V358ZM424.185 516.725L452.578 362.725L444.71 361.275L416.318 515.275L424.185 516.725ZM254.824 520H420.252V512H254.824V520ZM278.119 457.596L251.21 514.285L258.437 517.715L285.346 461.027L278.119 457.596ZM297 463C292.064 463 287.685 460.62 284.945 456.928L278.52 461.695C282.704 467.333 289.424 471 297 471V463ZM389 463H297V471H389V463ZM404 448C404 456.284 397.284 463 389 463V471C401.703 471 412 460.703 412 448H404ZM389 433C397.284 433 404 439.716 404 448H412C412 435.297 401.703 425 389 425V433ZM297 433H389V425H297V433ZM296.295 433.016C296.528 433.005 296.763 433 297 433V425C296.641 425 296.283 425.008 295.927 425.025L296.295 433.016ZM404.927 190.449L292.497 427.305L299.724 430.736L412.154 193.879L404.927 190.449ZM385.71 188.065C392.647 191.353 399.941 194.032 407.52 196.032L409.561 188.296C402.462 186.424 395.632 183.915 389.137 180.836L385.71 188.065ZM366.111 221.318L390.683 186.769L384.164 182.132L359.592 216.682L366.111 221.318ZM219 223H362.851V215H219V223ZM212.587 224.435C214.526 223.516 216.697 223 219 223V215C215.488 215 212.149 215.79 209.161 217.206L212.587 224.435ZM299.628 148.805C271.221 170.202 240.065 193.715 208.46 217.631L213.288 224.01C244.887 200.098 276.038 176.589 304.441 155.195L299.628 148.805ZM323 148H302.035V156H323V148ZM338 133C338 141.284 331.284 148 323 148V156C335.703 156 346 145.703 346 133H338ZM324.538 118.078C332.098 118.845 338 125.236 338 133H346C346 121.089 336.948 111.296 325.346 110.118L324.538 118.078ZM320.657 113.829C320.814 114.334 320.975 114.838 321.14 115.341L328.744 112.855C328.59 112.386 328.44 111.916 328.293 111.444L320.657 113.829ZM323.403 117.6L326.218 116.237L322.731 109.036L319.916 110.4L323.403 117.6ZM290 118H321.659V110H290V118ZM275 133C275 124.716 281.716 118 290 118V110C277.297 110 267 120.297 267 133H275ZM275.565 137.097C275.198 135.8 275 134.426 275 133H267C267 135.17 267.302 137.277 267.868 139.277L275.565 137.097ZM80.6297 235.175L273.46 141.787L269.973 134.587L77.1427 227.975L80.6297 235.175ZM61 223C67.4977 223 73.0402 227.134 75.1217 232.927L82.6506 230.222C79.4641 221.353 70.9791 215 61 215V223ZM4 223H61V215H4V223ZM0 151.974V219H8V151.974H0ZM5 148C4.73372 148 4.46936 147.993 4.20707 147.979L3.79293 155.969C4.19296 155.99 4.59541 156 5 156V148ZM190 148H5V156H190V148ZM205 133C205 141.284 198.284 148 190 148V156C202.703 156 213 145.703 213 133H205ZM190 118C198.284 118 205 124.716 205 133H213C213 120.297 202.703 110 190 110V118ZM5 118H190V110H5V118ZM4.20716 118.02C4.46933 118.007 4.73366 118 5 118V110C4.59547 110 4.19299 110.01 3.79284 110.031L4.20716 118.02ZM0 105.5V114.026H8V105.5H0ZM323.024 42.0408C226.48 60.1585 87.1606 86.1952 3.27906 101.565L4.72094 109.434C88.6212 94.0608 227.956 68.0211 324.5 49.9036L323.024 42.0408ZM342.907 1.45281C332.475 14.0837 324.56 28.7968 319.919 44.8622L327.605 47.0822C331.933 32.0989 339.32 18.3585 349.075 6.54719L342.907 1.45281ZM516 0H345.991V8H516V0ZM520 114V4H512V114H520ZM402 118H516V110H402V118ZM387 133C387 124.716 393.716 118 402 118V110C389.297 110 379 120.297 379 133H387ZM402 148C393.716 148 387 141.284 387 133H379C379 145.703 389.297 156 402 156V148ZM516 148H402V156H516V148ZM219 261H335.825V253H219V261ZM196 238C196 250.703 206.297 261 219 261V253C210.716 253 204 246.284 204 238H196ZM201.678 222.869C198.145 226.91 196 232.21 196 238H204C204 234.219 205.394 230.773 207.701 228.134L201.678 222.869ZM77.6259 327.176C117.052 296.989 162.374 262.55 207.104 228.69L202.275 222.312C157.539 256.176 112.204 290.625 72.7625 320.824L77.6259 327.176ZM107 320H75.1942V328H107V320ZM130 343C130 330.297 119.703 320 107 320V328C115.284 328 122 334.716 122 343H130ZM107 366C119.703 366 130 355.703 130 343H122C122 351.284 115.284 358 107 358V366ZM45 366H107V358H45V366ZM29.5077 360C33.5923 363.724 39.035 366 45 366V358C41.1059 358 37.5665 356.521 34.8977 354.088L29.5077 360ZM6.46179 382.084C14.9677 375.443 24.4225 368.107 34.6477 360.21L29.7578 353.878C19.5243 361.782 10.058 369.126 1.53821 375.779L6.46179 382.084ZM8 516V378.932H0V516H8ZM151.616 512H4V520H151.616V512ZM183.207 464.682L148.356 513.682L154.876 518.318L189.726 469.318L183.207 464.682ZM186.466 463H146V471H186.466V463ZM146 463C137.716 463 131 456.284 131 448H123C123 460.703 133.297 471 146 471V463ZM131 448C131 439.716 137.716 433 146 433V425C133.297 425 123 435.297 123 448H131ZM146 433H213.493V425H146V433ZM257.886 359.682L210.233 426.682L216.753 431.318L264.405 364.318L257.886 359.682ZM170 366H261.146V358H170V366ZM147 343C147 355.703 157.297 366 170 366V358C161.716 358 155 351.284 155 343H147ZM170 320C157.297 320 147 330.297 147 343H155C155 334.716 161.716 328 170 328V320ZM288.172 320H170V328H288.172V320ZM332.565 254.682L284.913 321.682L291.432 326.318L339.084 259.318L332.565 254.682ZM4 261H26.3875V253H4V261ZM8 267.842V257H0V267.842H8ZM24.644 253.4L2.25651 264.242L5.74349 271.442L28.131 260.6L24.644 253.4ZM32 425C19.2975 425 9 435.297 9 448H17C17 439.716 23.7157 433 32 433V425ZM57 425H32V433H57V425ZM80 448C80 435.297 69.7026 425 57 425V433C65.2843 433 72 439.716 72 448H80ZM57 471C69.7025 471 80 460.703 80 448H72C72 456.284 65.2843 463 57 463V471ZM32 471H57V463H32V471ZM9 448C9 460.703 19.2975 471 32 471V463C23.7157 463 17 456.284 17 448H9Z" fill="#FFA962"/>
<defs>
<linearGradient id="paint0_linear_14_7" x1="260" y1="4" x2="260" y2="516" gradientUnits="userSpaceOnUse">
<stop stop-color="#F0EA9C"/>
<stop offset="1" stop-color="#F7C478"/>
</linearGradient>
</defs>
</svg>
